<mxfile host="65bd71144e">
    <diagram id="ohe-i1M4ve1gTHTr1Yyn" name="ページ1">
        <mxGraphModel dx="1314" dy="1687" grid="1" gridSize="10" guides="1" tooltips="1" connect="1" arrows="1" fold="1" page="1" pageScale="1" pageWidth="827" pageHeight="1169" math="0" shadow="0">
            <root>
                <mxCell id="0"/>
                <mxCell id="1" parent="0"/>
                <mxCell id="9" value="" style="endArrow=classic;html=1;exitX=1;exitY=0.25;exitDx=0;exitDy=0;entryX=0;entryY=0;entryDx=0;entryDy=0;" parent="1" source="35" target="8" edge="1">
                    <mxGeometry width="50" height="50" relative="1" as="geometry">
                        <mxPoint x="620" y="70" as="sourcePoint"/>
                        <mxPoint x="670" y="20" as="targetPoint"/>
                    </mxGeometry>
                </mxCell>
                <mxCell id="11" value="" style="endArrow=classic;html=1;exitX=1;exitY=0.5;exitDx=0;exitDy=0;entryX=0;entryY=0.5;entryDx=0;entryDy=0;" parent="1" source="7" target="13" edge="1">
                    <mxGeometry width="50" height="50" relative="1" as="geometry">
                        <mxPoint x="660" y="-230" as="sourcePoint"/>
                        <mxPoint x="790" y="-220" as="targetPoint"/>
                    </mxGeometry>
                </mxCell>
                <mxCell id="14" value="" style="endArrow=classic;html=1;exitX=0.5;exitY=1;exitDx=0;exitDy=0;entryX=0.75;entryY=0;entryDx=0;entryDy=0;" parent="1" source="13" target="29" edge="1">
                    <mxGeometry width="50" height="50" relative="1" as="geometry">
                        <mxPoint x="640" y="-215" as="sourcePoint"/>
                        <mxPoint x="630" y="130" as="targetPoint"/>
                    </mxGeometry>
                </mxCell>
                <mxCell id="19" value="" style="group" parent="1" vertex="1" connectable="0">
                    <mxGeometry x="320" y="-160" width="280" height="180" as="geometry"/>
                </mxCell>
                <mxCell id="6" value="新規登録画面" style="rounded=1;whiteSpace=wrap;html=1;" parent="19" vertex="1">
                    <mxGeometry width="230" height="40" as="geometry"/>
                </mxCell>
                <mxCell id="7" value="入力必須項目を正しく記述後に&lt;br&gt;新規アカウント登録ボタンを押す" style="rounded=0;whiteSpace=wrap;html=1;" parent="19" vertex="1">
                    <mxGeometry y="40" width="230" height="50" as="geometry"/>
                </mxCell>
                <mxCell id="8" value="入力必須項目を正しく記述せずに&lt;br&gt;新規アカウント登録ボタンを押す" style="rounded=0;whiteSpace=wrap;html=1;" parent="19" vertex="1">
                    <mxGeometry y="90" width="230" height="50" as="geometry"/>
                </mxCell>
                <mxCell id="10" value="" style="curved=1;endArrow=classic;html=1;exitX=0.75;exitY=1;exitDx=0;exitDy=0;entryX=1;entryY=0.5;entryDx=0;entryDy=0;" parent="19" source="8" target="8" edge="1">
                    <mxGeometry width="50" height="50" relative="1" as="geometry">
                        <mxPoint x="220" y="360" as="sourcePoint"/>
                        <mxPoint x="310" y="140" as="targetPoint"/>
                        <Array as="points">
                            <mxPoint x="240" y="180"/>
                            <mxPoint x="280" y="140"/>
                        </Array>
                    </mxGeometry>
                </mxCell>
                <mxCell id="20" value="" style="group" parent="1" vertex="1" connectable="0">
                    <mxGeometry x="630" y="-160" width="230" height="90" as="geometry"/>
                </mxCell>
                <mxCell id="12" value="新規登録完了画面" style="rounded=1;whiteSpace=wrap;html=1;" parent="20" vertex="1">
                    <mxGeometry width="230" height="40" as="geometry"/>
                </mxCell>
                <mxCell id="13" value="トップページに戻るボタンを押す" style="rounded=0;whiteSpace=wrap;html=1;" parent="20" vertex="1">
                    <mxGeometry y="40" width="230" height="50" as="geometry"/>
                </mxCell>
                <mxCell id="37" value="" style="endArrow=classic;html=1;entryX=0;entryY=0.5;entryDx=0;entryDy=0;exitX=1;exitY=0.25;exitDx=0;exitDy=0;" parent="1" source="5" target="80" edge="1">
                    <mxGeometry width="50" height="50" relative="1" as="geometry">
                        <mxPoint x="310" y="200" as="sourcePoint"/>
                        <mxPoint x="460" y="200" as="targetPoint"/>
                    </mxGeometry>
                </mxCell>
                <mxCell id="38" value="" style="endArrow=classic;html=1;entryX=1;entryY=0.75;entryDx=0;entryDy=0;exitX=0;exitY=0.5;exitDx=0;exitDy=0;" parent="1" source="31" target="5" edge="1">
                    <mxGeometry width="50" height="50" relative="1" as="geometry">
                        <mxPoint x="440" y="280" as="sourcePoint"/>
                        <mxPoint x="580" y="210" as="targetPoint"/>
                    </mxGeometry>
                </mxCell>
                <mxCell id="43" value="" style="endArrow=classic;html=1;entryX=1;entryY=0.5;entryDx=0;entryDy=0;exitX=0;exitY=0.25;exitDx=0;exitDy=0;" parent="1" source="32" target="41" edge="1">
                    <mxGeometry width="50" height="50" relative="1" as="geometry">
                        <mxPoint x="830" y="220" as="sourcePoint"/>
                        <mxPoint x="1100" y="175" as="targetPoint"/>
                    </mxGeometry>
                </mxCell>
                <mxCell id="44" value="" style="endArrow=classic;html=1;exitX=1;exitY=0.5;exitDx=0;exitDy=0;entryX=0;entryY=0.75;entryDx=0;entryDy=0;" parent="1" source="42" target="32" edge="1">
                    <mxGeometry width="50" height="50" relative="1" as="geometry">
                        <mxPoint x="810" y="247.5" as="sourcePoint"/>
                        <mxPoint x="840" y="260" as="targetPoint"/>
                    </mxGeometry>
                </mxCell>
                <mxCell id="46" value="" style="group" parent="1" vertex="1" connectable="0">
                    <mxGeometry x="-300" y="280" width="230" height="140" as="geometry"/>
                </mxCell>
                <mxCell id="47" value="正しい情報が入ってる状態で、&lt;br&gt;確認ボタンを押す" style="rounded=0;whiteSpace=wrap;html=1;" parent="46" vertex="1">
                    <mxGeometry y="40" width="230" height="50" as="geometry"/>
                </mxCell>
                <mxCell id="48" value="マイページ編集画面" style="rounded=1;whiteSpace=wrap;html=1;" parent="46" vertex="1">
                    <mxGeometry width="230" height="40" as="geometry"/>
                </mxCell>
                <mxCell id="50" value="正しくない情報が入ってる状態で、&lt;br&gt;確認ボタンを押す" style="rounded=0;whiteSpace=wrap;html=1;" parent="46" vertex="1">
                    <mxGeometry y="90" width="230" height="50" as="geometry"/>
                </mxCell>
                <mxCell id="53" value="" style="curved=1;endArrow=classic;html=1;exitX=1;exitY=0.75;exitDx=0;exitDy=0;entryX=1;entryY=0.25;entryDx=0;entryDy=0;" parent="46" source="50" target="50" edge="1">
                    <mxGeometry width="50" height="50" relative="1" as="geometry">
                        <mxPoint x="180" y="145" as="sourcePoint"/>
                        <mxPoint x="237.5" y="120" as="targetPoint"/>
                        <Array as="points">
                            <mxPoint x="260" y="140"/>
                            <mxPoint x="260" y="90"/>
                        </Array>
                    </mxGeometry>
                </mxCell>
                <mxCell id="51" value="" style="endArrow=classic;html=1;exitX=0;exitY=0.25;exitDx=0;exitDy=0;entryX=1;entryY=0.5;entryDx=0;entryDy=0;" parent="1" source="40" target="48" edge="1">
                    <mxGeometry width="50" height="50" relative="1" as="geometry">
                        <mxPoint x="1170" y="337.5" as="sourcePoint"/>
                        <mxPoint x="20" y="430" as="targetPoint"/>
                    </mxGeometry>
                </mxCell>
                <mxCell id="52" value="" style="endArrow=classic;html=1;exitX=0;exitY=0.5;exitDx=0;exitDy=0;entryX=1;entryY=0.5;entryDx=0;entryDy=0;" parent="1" source="47" target="188" edge="1">
                    <mxGeometry width="50" height="50" relative="1" as="geometry">
                        <mxPoint x="1180" y="205" as="sourcePoint"/>
                        <mxPoint x="-370" y="345" as="targetPoint"/>
                    </mxGeometry>
                </mxCell>
                <mxCell id="58" value="新規募集投稿ボタンを押す" style="rounded=0;whiteSpace=wrap;html=1;" parent="1" vertex="1">
                    <mxGeometry x="570" y="275" width="230" height="50" as="geometry"/>
                </mxCell>
                <mxCell id="29" value="トップページ" style="rounded=1;whiteSpace=wrap;html=1;" parent="1" vertex="1">
                    <mxGeometry x="570" y="135" width="230" height="40" as="geometry"/>
                </mxCell>
                <mxCell id="31" value="ログアウトボタンを押す" style="rounded=0;whiteSpace=wrap;html=1;" parent="1" vertex="1">
                    <mxGeometry x="570" y="175" width="230" height="50" as="geometry"/>
                </mxCell>
                <mxCell id="32" value="マイページページボタンを押す" style="rounded=0;whiteSpace=wrap;html=1;" parent="1" vertex="1">
                    <mxGeometry x="570" y="225" width="230" height="50" as="geometry"/>
                </mxCell>
                <mxCell id="39" value="募集投稿の編集ボタンを押す" style="rounded=0;whiteSpace=wrap;html=1;" parent="1" vertex="1">
                    <mxGeometry x="570" y="320" width="230" height="50" as="geometry"/>
                </mxCell>
                <mxCell id="60" value="" style="group" parent="1" vertex="1" connectable="0">
                    <mxGeometry x="60" y="280" width="230" height="190" as="geometry"/>
                </mxCell>
                <mxCell id="59" value="募集投稿の編集ボタンを押す" style="rounded=0;whiteSpace=wrap;html=1;" parent="60" vertex="1">
                    <mxGeometry y="140" width="230" height="50" as="geometry"/>
                </mxCell>
                <mxCell id="40" value="編集ボタンを押す" style="rounded=0;whiteSpace=wrap;html=1;" parent="60" vertex="1">
                    <mxGeometry y="40" width="230" height="50" as="geometry"/>
                </mxCell>
                <mxCell id="41" value="マイページ" style="rounded=1;whiteSpace=wrap;html=1;" parent="60" vertex="1">
                    <mxGeometry width="230" height="40" as="geometry"/>
                </mxCell>
                <mxCell id="42" value="トップページに戻るボタンを押す" style="rounded=0;whiteSpace=wrap;html=1;" parent="60" vertex="1">
                    <mxGeometry y="90" width="230" height="50" as="geometry"/>
                </mxCell>
                <mxCell id="61" value="" style="endArrow=classic;html=1;entryX=0.5;entryY=0;entryDx=0;entryDy=0;exitX=0.5;exitY=1;exitDx=0;exitDy=0;" parent="1" source="59" target="56" edge="1">
                    <mxGeometry width="50" height="50" relative="1" as="geometry">
                        <mxPoint x="1060" y="145" as="sourcePoint"/>
                        <mxPoint x="810" y="260" as="targetPoint"/>
                    </mxGeometry>
                </mxCell>
                <mxCell id="63" value="" style="endArrow=classic;html=1;entryX=1;entryY=0.5;entryDx=0;entryDy=0;exitX=0;exitY=0.25;exitDx=0;exitDy=0;" parent="1" source="39" target="56" edge="1">
                    <mxGeometry width="50" height="50" relative="1" as="geometry">
                        <mxPoint x="850" y="270" as="sourcePoint"/>
                        <mxPoint x="1060" y="50" as="targetPoint"/>
                    </mxGeometry>
                </mxCell>
                <mxCell id="64" value="" style="endArrow=classic;html=1;entryX=0;entryY=0.5;entryDx=0;entryDy=0;exitX=1;exitY=0.5;exitDx=0;exitDy=0;" parent="1" source="55" target="39" edge="1">
                    <mxGeometry width="50" height="50" relative="1" as="geometry">
                        <mxPoint x="810" y="292.5" as="sourcePoint"/>
                        <mxPoint x="1060" y="390" as="targetPoint"/>
                    </mxGeometry>
                </mxCell>
                <mxCell id="68" value="" style="endArrow=classic;html=1;entryX=0;entryY=0.75;entryDx=0;entryDy=0;exitX=1;exitY=0.5;exitDx=0;exitDy=0;" parent="1" source="57" target="39" edge="1">
                    <mxGeometry width="50" height="50" relative="1" as="geometry">
                        <mxPoint x="1060" y="435" as="sourcePoint"/>
                        <mxPoint x="810" y="305" as="targetPoint"/>
                    </mxGeometry>
                </mxCell>
                <mxCell id="69" value="" style="group" parent="1" vertex="1" connectable="0">
                    <mxGeometry x="60" y="610" width="230" height="190" as="geometry"/>
                </mxCell>
                <mxCell id="55" value="正しい情報が入ってる状態で&lt;br&gt;保存ボタンを押す" style="rounded=0;whiteSpace=wrap;html=1;" parent="69" vertex="1">
                    <mxGeometry y="40" width="230" height="50" as="geometry"/>
                </mxCell>
                <mxCell id="56" value="募集投稿の編集稿画面" style="rounded=1;whiteSpace=wrap;html=1;" parent="69" vertex="1">
                    <mxGeometry width="230" height="40" as="geometry"/>
                </mxCell>
                <mxCell id="57" value="キャンセルボタンを押す" style="rounded=0;whiteSpace=wrap;html=1;" parent="69" vertex="1">
                    <mxGeometry y="140" width="230" height="50" as="geometry"/>
                </mxCell>
                <mxCell id="66" value="正しくない情報が入ってる状態で、&lt;br&gt;保存ボタンを押す" style="rounded=0;whiteSpace=wrap;html=1;" parent="69" vertex="1">
                    <mxGeometry y="90" width="230" height="50" as="geometry"/>
                </mxCell>
                <mxCell id="92" value="" style="curved=1;endArrow=classic;html=1;exitX=0;exitY=0.5;exitDx=0;exitDy=0;entryX=0;entryY=0.5;entryDx=0;entryDy=0;" parent="69" source="66" target="56" edge="1">
                    <mxGeometry width="50" height="50" relative="1" as="geometry">
                        <mxPoint x="-80" y="105" as="sourcePoint"/>
                        <mxPoint x="-80" y="10" as="targetPoint"/>
                        <Array as="points">
                            <mxPoint x="-60" y="115"/>
                            <mxPoint x="-60" y="20"/>
                        </Array>
                    </mxGeometry>
                </mxCell>
                <mxCell id="70" value="" style="group" parent="1" vertex="1" connectable="0">
                    <mxGeometry x="1070" y="80" width="230" height="190" as="geometry"/>
                </mxCell>
                <mxCell id="71" value="正しい情報が入ってる状態で&lt;br&gt;新規投稿ボタンを押す" style="rounded=0;whiteSpace=wrap;html=1;" parent="70" vertex="1">
                    <mxGeometry y="40" width="230" height="50" as="geometry"/>
                </mxCell>
                <mxCell id="72" value="新規募集投稿画面" style="rounded=1;whiteSpace=wrap;html=1;" parent="70" vertex="1">
                    <mxGeometry width="230" height="40" as="geometry"/>
                </mxCell>
                <mxCell id="73" value="キャンセルボタンを押す" style="rounded=0;whiteSpace=wrap;html=1;" parent="70" vertex="1">
                    <mxGeometry y="140" width="230" height="50" as="geometry"/>
                </mxCell>
                <mxCell id="74" value="正しくない情報が入ってる状態で、&lt;br&gt;保存ボタンを押す" style="rounded=0;whiteSpace=wrap;html=1;" parent="70" vertex="1">
                    <mxGeometry y="90" width="230" height="50" as="geometry"/>
                </mxCell>
                <mxCell id="75" value="" style="curved=1;endArrow=classic;html=1;exitX=1;exitY=0.75;exitDx=0;exitDy=0;entryX=1;entryY=0.25;entryDx=0;entryDy=0;" parent="70" source="74" target="74" edge="1">
                    <mxGeometry width="50" height="50" relative="1" as="geometry">
                        <mxPoint x="240" y="115" as="sourcePoint"/>
                        <mxPoint x="240" y="20" as="targetPoint"/>
                        <Array as="points">
                            <mxPoint x="250" y="128"/>
                            <mxPoint x="250" y="103"/>
                        </Array>
                    </mxGeometry>
                </mxCell>
                <mxCell id="77" value="" style="endArrow=classic;html=1;entryX=0;entryY=0.5;entryDx=0;entryDy=0;exitX=1;exitY=0.25;exitDx=0;exitDy=0;" parent="1" source="58" target="72" edge="1">
                    <mxGeometry width="50" height="50" relative="1" as="geometry">
                        <mxPoint x="810" y="290" as="sourcePoint"/>
                        <mxPoint x="1060" y="340" as="targetPoint"/>
                    </mxGeometry>
                </mxCell>
                <mxCell id="78" value="" style="endArrow=classic;html=1;exitX=1;exitY=0.5;exitDx=0;exitDy=0;entryX=0;entryY=0.5;entryDx=0;entryDy=0;" parent="1" source="71" target="175" edge="1">
                    <mxGeometry width="50" height="50" relative="1" as="geometry">
                        <mxPoint x="810" y="342.5" as="sourcePoint"/>
                        <mxPoint x="780" y="580" as="targetPoint"/>
                    </mxGeometry>
                </mxCell>
                <mxCell id="79" value="" style="endArrow=classic;html=1;exitX=0;exitY=0.5;exitDx=0;exitDy=0;entryX=1;entryY=0.75;entryDx=0;entryDy=0;" parent="1" source="73" target="58" edge="1">
                    <mxGeometry width="50" height="50" relative="1" as="geometry">
                        <mxPoint x="1060" y="645" as="sourcePoint"/>
                        <mxPoint x="770" y="420" as="targetPoint"/>
                    </mxGeometry>
                </mxCell>
                <mxCell id="80" value="トップページ" style="rounded=1;whiteSpace=wrap;html=1;" parent="1" vertex="1">
                    <mxGeometry x="570" y="135" width="230" height="40" as="geometry"/>
                </mxCell>
                <mxCell id="83" value="募集詳細ボタンを押す" style="rounded=0;whiteSpace=wrap;html=1;" parent="1" vertex="1">
                    <mxGeometry x="570" y="370" width="230" height="50" as="geometry"/>
                </mxCell>
                <mxCell id="95" value="" style="endArrow=classic;html=1;exitX=1;exitY=0.5;exitDx=0;exitDy=0;entryX=0;entryY=0.5;entryDx=0;entryDy=0;" parent="1" source="83" target="86" edge="1">
                    <mxGeometry width="50" height="50" relative="1" as="geometry">
                        <mxPoint x="1050" y="442.5" as="sourcePoint"/>
                        <mxPoint x="780" y="510" as="targetPoint"/>
                    </mxGeometry>
                </mxCell>
                <mxCell id="96" value="" style="endArrow=classic;html=1;exitX=0;exitY=0.5;exitDx=0;exitDy=0;entryX=1;entryY=0.75;entryDx=0;entryDy=0;" parent="1" source="88" target="83" edge="1">
                    <mxGeometry width="50" height="50" relative="1" as="geometry">
                        <mxPoint x="810" y="392.5" as="sourcePoint"/>
                        <mxPoint x="1080" y="400" as="targetPoint"/>
                    </mxGeometry>
                </mxCell>
                <mxCell id="98" value="" style="endArrow=classic;html=1;exitX=1;exitY=0.5;exitDx=0;exitDy=0;entryX=0;entryY=0.5;entryDx=0;entryDy=0;" parent="1" source="85" target="101" edge="1">
                    <mxGeometry width="50" height="50" relative="1" as="geometry">
                        <mxPoint x="1310" y="422.5" as="sourcePoint"/>
                        <mxPoint x="1580" y="420" as="targetPoint"/>
                    </mxGeometry>
                </mxCell>
                <mxCell id="99" value="" style="group" parent="1" vertex="1" connectable="0">
                    <mxGeometry x="1440" y="360" width="230" height="140" as="geometry"/>
                </mxCell>
                <mxCell id="100" value="メッセージ記入後に&lt;br&gt;送信確認ボタンを押す" style="rounded=0;whiteSpace=wrap;html=1;" parent="99" vertex="1">
                    <mxGeometry y="40" width="230" height="50" as="geometry"/>
                </mxCell>
                <mxCell id="101" value="フレンド申請画面" style="rounded=1;whiteSpace=wrap;html=1;" parent="99" vertex="1">
                    <mxGeometry width="230" height="40" as="geometry"/>
                </mxCell>
                <mxCell id="102" value="戻るボタンを押す" style="rounded=0;whiteSpace=wrap;html=1;" parent="99" vertex="1">
                    <mxGeometry y="90" width="230" height="50" as="geometry"/>
                </mxCell>
                <mxCell id="103" value="" style="endArrow=classic;html=1;exitX=0;exitY=0.5;exitDx=0;exitDy=0;entryX=1;entryY=0.5;entryDx=0;entryDy=0;" parent="1" source="102" target="88" edge="1">
                    <mxGeometry width="50" height="50" relative="1" as="geometry">
                        <mxPoint x="1310" y="435" as="sourcePoint"/>
                        <mxPoint x="1490" y="390" as="targetPoint"/>
                    </mxGeometry>
                </mxCell>
                <mxCell id="104" value="" style="group" parent="1" vertex="1" connectable="0">
                    <mxGeometry x="1810" y="360" width="230" height="140" as="geometry"/>
                </mxCell>
                <mxCell id="105" value="送信ボタンを押す" style="rounded=0;whiteSpace=wrap;html=1;" parent="104" vertex="1">
                    <mxGeometry y="40" width="230" height="50" as="geometry"/>
                </mxCell>
                <mxCell id="106" value="フレンド申請確認画面" style="rounded=1;whiteSpace=wrap;html=1;" parent="104" vertex="1">
                    <mxGeometry width="230" height="40" as="geometry"/>
                </mxCell>
                <mxCell id="107" value="戻るボタンを押す" style="rounded=0;whiteSpace=wrap;html=1;" parent="104" vertex="1">
                    <mxGeometry y="90" width="230" height="50" as="geometry"/>
                </mxCell>
                <mxCell id="108" value="" style="endArrow=classic;html=1;exitX=1;exitY=0.5;exitDx=0;exitDy=0;entryX=0;entryY=0.5;entryDx=0;entryDy=0;" parent="1" source="100" target="106" edge="1">
                    <mxGeometry width="50" height="50" relative="1" as="geometry">
                        <mxPoint x="1310" y="435" as="sourcePoint"/>
                        <mxPoint x="1450" y="390" as="targetPoint"/>
                    </mxGeometry>
                </mxCell>
                <mxCell id="109" value="" style="endArrow=classic;html=1;exitX=0;exitY=0.5;exitDx=0;exitDy=0;entryX=1;entryY=0.5;entryDx=0;entryDy=0;" parent="1" source="107" target="102" edge="1">
                    <mxGeometry width="50" height="50" relative="1" as="geometry">
                        <mxPoint x="1450" y="485" as="sourcePoint"/>
                        <mxPoint x="1730" y="520" as="targetPoint"/>
                    </mxGeometry>
                </mxCell>
                <mxCell id="110" value="" style="curved=1;endArrow=classic;html=1;exitX=1;exitY=0.5;exitDx=0;exitDy=0;entryX=1;entryY=0.25;entryDx=0;entryDy=0;" parent="1" source="105" target="83" edge="1">
                    <mxGeometry width="50" height="50" relative="1" as="geometry">
                        <mxPoint x="2068" y="435" as="sourcePoint"/>
                        <mxPoint x="900" y="350" as="targetPoint"/>
                        <Array as="points">
                            <mxPoint x="2180" y="280"/>
                            <mxPoint x="1100" y="280"/>
                        </Array>
                    </mxGeometry>
                </mxCell>
                <mxCell id="112" value="" style="group" parent="1" vertex="1" connectable="0">
                    <mxGeometry x="570" y="650" width="230" height="140" as="geometry"/>
                </mxCell>
                <mxCell id="113" value="チャットルームをクリックする" style="rounded=0;whiteSpace=wrap;html=1;" parent="112" vertex="1">
                    <mxGeometry y="40" width="230" height="50" as="geometry"/>
                </mxCell>
                <mxCell id="114" value="チャットルーム一覧画面" style="rounded=1;whiteSpace=wrap;html=1;" parent="112" vertex="1">
                    <mxGeometry width="230" height="40" as="geometry"/>
                </mxCell>
                <mxCell id="115" value="戻るボタンを押す" style="rounded=0;whiteSpace=wrap;html=1;" parent="112" vertex="1">
                    <mxGeometry y="90" width="230" height="50" as="geometry"/>
                </mxCell>
                <mxCell id="117" value="" style="curved=1;endArrow=classic;html=1;exitX=0;exitY=0.5;exitDx=0;exitDy=0;entryX=0.5;entryY=1;entryDx=0;entryDy=0;" parent="1" source="115" target="83" edge="1">
                    <mxGeometry width="50" height="50" relative="1" as="geometry">
                        <mxPoint x="490" y="755" as="sourcePoint"/>
                        <mxPoint x="627.5" y="520" as="targetPoint"/>
                        <Array as="points">
                            <mxPoint x="490" y="755"/>
                            <mxPoint x="570" y="600"/>
                            <mxPoint x="670" y="550"/>
                        </Array>
                    </mxGeometry>
                </mxCell>
                <mxCell id="118" value="" style="endArrow=classic;html=1;exitX=1;exitY=0.5;exitDx=0;exitDy=0;entryX=0;entryY=0.5;entryDx=0;entryDy=0;" parent="1" source="113" target="120" edge="1">
                    <mxGeometry width="50" height="50" relative="1" as="geometry">
                        <mxPoint x="695" y="480" as="sourcePoint"/>
                        <mxPoint x="910" y="715" as="targetPoint"/>
                    </mxGeometry>
                </mxCell>
                <mxCell id="120" value="メッセージ入力後、送信ボタンを押す" style="rounded=0;whiteSpace=wrap;html=1;" parent="1" vertex="1">
                    <mxGeometry x="910" y="690" width="230" height="50" as="geometry"/>
                </mxCell>
                <mxCell id="121" value="メッセージ画面" style="rounded=1;whiteSpace=wrap;html=1;" parent="1" vertex="1">
                    <mxGeometry x="910" y="650" width="230" height="40" as="geometry"/>
                </mxCell>
                <mxCell id="122" value="メッセージ未入力時、送信ボタンを押す" style="rounded=0;whiteSpace=wrap;html=1;" parent="1" vertex="1">
                    <mxGeometry x="910" y="740" width="230" height="50" as="geometry"/>
                </mxCell>
                <mxCell id="123" value="" style="curved=1;endArrow=classic;html=1;exitX=1;exitY=0.75;exitDx=0;exitDy=0;entryX=1;entryY=0.25;entryDx=0;entryDy=0;" parent="1" source="120" target="120" edge="1">
                    <mxGeometry width="50" height="50" relative="1" as="geometry">
                        <mxPoint x="580" y="775" as="sourcePoint"/>
                        <mxPoint x="637.5" y="480" as="targetPoint"/>
                        <Array as="points">
                            <mxPoint x="1170" y="730"/>
                            <mxPoint x="1170" y="703"/>
                        </Array>
                    </mxGeometry>
                </mxCell>
                <mxCell id="124" value="" style="curved=1;endArrow=classic;html=1;exitX=1;exitY=0.75;exitDx=0;exitDy=0;entryX=1;entryY=0.25;entryDx=0;entryDy=0;" parent="1" source="122" target="122" edge="1">
                    <mxGeometry width="50" height="50" relative="1" as="geometry">
                        <mxPoint x="1150" y="737.5" as="sourcePoint"/>
                        <mxPoint x="1150" y="712.5" as="targetPoint"/>
                        <Array as="points">
                            <mxPoint x="1170" y="778"/>
                            <mxPoint x="1170" y="753"/>
                        </Array>
                    </mxGeometry>
                </mxCell>
                <mxCell id="129" value="編集ボタンを押す" style="rounded=0;whiteSpace=wrap;html=1;" parent="1" vertex="1">
                    <mxGeometry x="910" y="790" width="230" height="50" as="geometry"/>
                </mxCell>
                <mxCell id="130" value="削除ボタンを押す" style="rounded=0;whiteSpace=wrap;html=1;" parent="1" vertex="1">
                    <mxGeometry x="910" y="840" width="230" height="50" as="geometry"/>
                </mxCell>
                <mxCell id="131" value="" style="curved=1;endArrow=classic;html=1;exitX=1;exitY=0.75;exitDx=0;exitDy=0;entryX=1;entryY=0.25;entryDx=0;entryDy=0;" parent="1" source="129" target="129" edge="1">
                    <mxGeometry width="50" height="50" relative="1" as="geometry">
                        <mxPoint x="580" y="875" as="sourcePoint"/>
                        <mxPoint x="637.5" y="580" as="targetPoint"/>
                        <Array as="points">
                            <mxPoint x="1170" y="830"/>
                            <mxPoint x="1170" y="803"/>
                        </Array>
                    </mxGeometry>
                </mxCell>
                <mxCell id="132" value="" style="curved=1;endArrow=classic;html=1;exitX=1;exitY=0.75;exitDx=0;exitDy=0;entryX=1;entryY=0.25;entryDx=0;entryDy=0;" parent="1" source="130" target="130" edge="1">
                    <mxGeometry width="50" height="50" relative="1" as="geometry">
                        <mxPoint x="1150" y="837.5" as="sourcePoint"/>
                        <mxPoint x="1150" y="812.5" as="targetPoint"/>
                        <Array as="points">
                            <mxPoint x="1170" y="878"/>
                            <mxPoint x="1170" y="853"/>
                        </Array>
                    </mxGeometry>
                </mxCell>
                <mxCell id="134" value="フレンド承認ボタンを押す" style="rounded=0;whiteSpace=wrap;html=1;" parent="1" vertex="1">
                    <mxGeometry x="910" y="890" width="230" height="50" as="geometry"/>
                </mxCell>
                <mxCell id="135" value="" style="curved=1;endArrow=classic;html=1;exitX=1;exitY=0.75;exitDx=0;exitDy=0;entryX=1;entryY=0.25;entryDx=0;entryDy=0;" parent="1" source="134" target="134" edge="1">
                    <mxGeometry width="50" height="50" relative="1" as="geometry">
                        <mxPoint x="1150" y="887.5" as="sourcePoint"/>
                        <mxPoint x="1150" y="862.5" as="targetPoint"/>
                        <Array as="points">
                            <mxPoint x="1170" y="928"/>
                            <mxPoint x="1170" y="903"/>
                        </Array>
                    </mxGeometry>
                </mxCell>
                <mxCell id="136" value="戻るボタンを押す" style="rounded=0;whiteSpace=wrap;html=1;" parent="1" vertex="1">
                    <mxGeometry x="910" y="990" width="230" height="50" as="geometry"/>
                </mxCell>
                <mxCell id="137" value="" style="endArrow=classic;html=1;exitX=0;exitY=0.5;exitDx=0;exitDy=0;entryX=1;entryY=0.5;entryDx=0;entryDy=0;" parent="1" source="136" target="115" edge="1">
                    <mxGeometry width="50" height="50" relative="1" as="geometry">
                        <mxPoint x="810" y="725" as="sourcePoint"/>
                        <mxPoint x="920" y="725" as="targetPoint"/>
                    </mxGeometry>
                </mxCell>
                <mxCell id="140" value="ユーザープロフィールを押す" style="rounded=0;whiteSpace=wrap;html=1;" parent="1" vertex="1">
                    <mxGeometry x="910" y="940" width="230" height="50" as="geometry"/>
                </mxCell>
                <mxCell id="142" value="" style="group" parent="1" vertex="1" connectable="0">
                    <mxGeometry x="1070" y="360" width="230" height="190" as="geometry"/>
                </mxCell>
                <mxCell id="139" value="ユーザープロフィールを押す" style="rounded=0;whiteSpace=wrap;html=1;" parent="142" vertex="1">
                    <mxGeometry y="140" width="230" height="50" as="geometry"/>
                </mxCell>
                <mxCell id="85" value="フレンド申請を送る&lt;br&gt;ボタンを押す" style="rounded=0;whiteSpace=wrap;html=1;" parent="142" vertex="1">
                    <mxGeometry y="40" width="230" height="50" as="geometry"/>
                </mxCell>
                <mxCell id="86" value="募集詳細画面" style="rounded=1;whiteSpace=wrap;html=1;" parent="142" vertex="1">
                    <mxGeometry width="230" height="40" as="geometry"/>
                </mxCell>
                <mxCell id="88" value="戻るボタンを押す" style="rounded=0;whiteSpace=wrap;html=1;" parent="142" vertex="1">
                    <mxGeometry y="90" width="230" height="50" as="geometry"/>
                </mxCell>
                <mxCell id="143" value="" style="group" parent="1" vertex="1" connectable="0">
                    <mxGeometry x="1340" y="620" width="230" height="140" as="geometry"/>
                </mxCell>
                <mxCell id="144" value="フレンド申請を送る&lt;br&gt;ボタンを押す" style="rounded=0;whiteSpace=wrap;html=1;" parent="143" vertex="1">
                    <mxGeometry y="40" width="230" height="50" as="geometry"/>
                </mxCell>
                <mxCell id="145" value="ユーザープロフィール画面" style="rounded=1;whiteSpace=wrap;html=1;" parent="143" vertex="1">
                    <mxGeometry width="230" height="40" as="geometry"/>
                </mxCell>
                <mxCell id="146" value="戻るボタンを押す" style="rounded=0;whiteSpace=wrap;html=1;" parent="143" vertex="1">
                    <mxGeometry y="90" width="230" height="50" as="geometry"/>
                </mxCell>
                <mxCell id="147" value="" style="endArrow=classic;html=1;exitX=1;exitY=0.5;exitDx=0;exitDy=0;entryX=0;entryY=1;entryDx=0;entryDy=0;" parent="1" source="140" target="146" edge="1">
                    <mxGeometry width="50" height="50" relative="1" as="geometry">
                        <mxPoint x="1250" y="930" as="sourcePoint"/>
                        <mxPoint x="1360" y="930" as="targetPoint"/>
                    </mxGeometry>
                </mxCell>
                <mxCell id="148" value="" style="endArrow=classic;html=1;exitX=0.5;exitY=1;exitDx=0;exitDy=0;entryX=0;entryY=0;entryDx=0;entryDy=0;" parent="1" source="139" target="145" edge="1">
                    <mxGeometry width="50" height="50" relative="1" as="geometry">
                        <mxPoint x="1150" y="975" as="sourcePoint"/>
                        <mxPoint x="1370" y="680" as="targetPoint"/>
                    </mxGeometry>
                </mxCell>
                <mxCell id="149" value="" style="endArrow=classic;html=1;exitX=0;exitY=0.5;exitDx=0;exitDy=0;entryX=0.807;entryY=1.011;entryDx=0;entryDy=0;entryPerimeter=0;" parent="1" source="146" target="83" edge="1">
                    <mxGeometry width="50" height="50" relative="1" as="geometry">
                        <mxPoint x="1195" y="560" as="sourcePoint"/>
                        <mxPoint x="800" y="445" as="targetPoint"/>
                    </mxGeometry>
                </mxCell>
                <mxCell id="150" value="" style="endArrow=classic;html=1;exitX=1;exitY=0.5;exitDx=0;exitDy=0;entryX=0.75;entryY=1;entryDx=0;entryDy=0;" parent="1" source="144" target="102" edge="1">
                    <mxGeometry width="50" height="50" relative="1" as="geometry">
                        <mxPoint x="1195" y="560" as="sourcePoint"/>
                        <mxPoint x="1350" y="630" as="targetPoint"/>
                        <Array as="points">
                            <mxPoint x="1613" y="685"/>
                        </Array>
                    </mxGeometry>
                </mxCell>
                <mxCell id="33" value="" style="curved=1;endArrow=classic;html=1;entryX=1;entryY=0.25;entryDx=0;entryDy=0;" parent="1" target="3" edge="1">
                    <mxGeometry width="50" height="50" relative="1" as="geometry">
                        <mxPoint x="280" y="160" as="sourcePoint"/>
                        <mxPoint x="430" y="360" as="targetPoint"/>
                        <Array as="points">
                            <mxPoint x="300" y="160"/>
                            <mxPoint x="300" y="140"/>
                        </Array>
                    </mxGeometry>
                </mxCell>
                <mxCell id="152" value="" style="group" parent="1" vertex="1" connectable="0">
                    <mxGeometry x="80" y="10" width="200" height="200" as="geometry"/>
                </mxCell>
                <mxCell id="2" value="トップページ（ログイン画面）" style="rounded=1;whiteSpace=wrap;html=1;" parent="152" vertex="1">
                    <mxGeometry width="200" height="40" as="geometry"/>
                </mxCell>
                <mxCell id="3" value="誤ったパスワードでログインする" style="rounded=0;whiteSpace=wrap;html=1;" parent="152" vertex="1">
                    <mxGeometry y="120" width="200" height="40" as="geometry"/>
                </mxCell>
                <mxCell id="5" value="正しいパスワードでログインする" style="rounded=0;whiteSpace=wrap;html=1;" parent="152" vertex="1">
                    <mxGeometry y="80" width="200" height="40" as="geometry"/>
                </mxCell>
                <mxCell id="35" value="新しいアカウントを作成&lt;br&gt;のボタンを押す" style="rounded=0;whiteSpace=wrap;html=1;" parent="152" vertex="1">
                    <mxGeometry y="40" width="200" height="40" as="geometry"/>
                </mxCell>
                <mxCell id="151" value="パスワードを忘れた場合&lt;br&gt;ボタンを押す" style="rounded=0;whiteSpace=wrap;html=1;" parent="152" vertex="1">
                    <mxGeometry y="160" width="200" height="40" as="geometry"/>
                </mxCell>
                <mxCell id="165" value="" style="endArrow=classic;html=1;exitX=0;exitY=0.25;exitDx=0;exitDy=0;entryX=1;entryY=0.5;entryDx=0;entryDy=0;" parent="1" target="161" edge="1">
                    <mxGeometry width="50" height="50" relative="1" as="geometry">
                        <mxPoint x="80" y="182.5" as="sourcePoint"/>
                        <mxPoint x="-50" y="150" as="targetPoint"/>
                    </mxGeometry>
                </mxCell>
                <mxCell id="160" value="正しい登録済みメールアドレスと&lt;br&gt;生年月日を入力後、&lt;br&gt;一時パスワードを発行ボタンを押す" style="rounded=0;whiteSpace=wrap;html=1;" parent="1" vertex="1">
                    <mxGeometry x="-310" y="50" width="230" height="50" as="geometry"/>
                </mxCell>
                <mxCell id="161" value="パスワード再発行画面" style="rounded=1;whiteSpace=wrap;html=1;" parent="1" vertex="1">
                    <mxGeometry x="-310" y="10" width="230" height="40" as="geometry"/>
                </mxCell>
                <mxCell id="162" value="正しくない情報が入ってる状態で、&lt;br&gt;一時パスワード発行ボタンを押す" style="rounded=0;whiteSpace=wrap;html=1;" parent="1" vertex="1">
                    <mxGeometry x="-310" y="100" width="230" height="50" as="geometry"/>
                </mxCell>
                <mxCell id="163" value="" style="curved=1;endArrow=classic;html=1;exitX=1;exitY=0.75;exitDx=0;exitDy=0;entryX=1;entryY=0.25;entryDx=0;entryDy=0;" parent="1" source="162" target="162" edge="1">
                    <mxGeometry width="50" height="50" relative="1" as="geometry">
                        <mxPoint x="-130" y="155" as="sourcePoint"/>
                        <mxPoint x="-72.5" y="130" as="targetPoint"/>
                        <Array as="points">
                            <mxPoint x="-62" y="138"/>
                            <mxPoint x="-60" y="113"/>
                        </Array>
                    </mxGeometry>
                </mxCell>
                <mxCell id="166" value="キャンセルボタンを押す" style="rounded=0;whiteSpace=wrap;html=1;" parent="1" vertex="1">
                    <mxGeometry x="-310" y="150" width="230" height="50" as="geometry"/>
                </mxCell>
                <mxCell id="167" value="" style="endArrow=classic;html=1;entryX=0;entryY=0.5;entryDx=0;entryDy=0;" parent="1" target="151" edge="1">
                    <mxGeometry width="50" height="50" relative="1" as="geometry">
                        <mxPoint x="-80" y="175" as="sourcePoint"/>
                        <mxPoint x="50" y="187.50000000000023" as="targetPoint"/>
                    </mxGeometry>
                </mxCell>
                <mxCell id="168" value="" style="endArrow=classic;html=1;exitX=0;exitY=0.5;exitDx=0;exitDy=0;entryX=1;entryY=0.5;entryDx=0;entryDy=0;" parent="1" source="160" target="169" edge="1">
                    <mxGeometry width="50" height="50" relative="1" as="geometry">
                        <mxPoint x="-410" y="162.50000000000023" as="sourcePoint"/>
                        <mxPoint x="-570" y="10.000000000000227" as="targetPoint"/>
                    </mxGeometry>
                </mxCell>
                <mxCell id="169" value="パスワード再発行完了画面" style="rounded=1;whiteSpace=wrap;html=1;" parent="1" vertex="1">
                    <mxGeometry x="-710" y="10" width="230" height="40" as="geometry"/>
                </mxCell>
                <mxCell id="170" value="ログイン画面に戻るボタンを押す" style="rounded=0;whiteSpace=wrap;html=1;" parent="1" vertex="1">
                    <mxGeometry x="-710" y="50" width="230" height="50" as="geometry"/>
                </mxCell>
                <mxCell id="171" value="" style="curved=1;endArrow=classic;html=1;entryX=0.25;entryY=0;entryDx=0;entryDy=0;exitX=0;exitY=0.5;exitDx=0;exitDy=0;" parent="1" source="170" target="2" edge="1">
                    <mxGeometry width="50" height="50" relative="1" as="geometry">
                        <mxPoint x="-470" y="120" as="sourcePoint"/>
                        <mxPoint x="-70" y="122.49999999999977" as="targetPoint"/>
                        <Array as="points">
                            <mxPoint x="-760" y="60"/>
                            <mxPoint x="-690" y="-80"/>
                            <mxPoint x="-240" y="-100"/>
                        </Array>
                    </mxGeometry>
                </mxCell>
                <mxCell id="181" value="" style="group" parent="1" vertex="1" connectable="0">
                    <mxGeometry x="1390" y="80" width="230" height="140" as="geometry"/>
                </mxCell>
                <mxCell id="174" value="投稿ボタンを押す" style="rounded=0;whiteSpace=wrap;html=1;" parent="181" vertex="1">
                    <mxGeometry y="40" width="230" height="50" as="geometry"/>
                </mxCell>
                <mxCell id="175" value="新規募集投稿確認画面" style="rounded=1;whiteSpace=wrap;html=1;" parent="181" vertex="1">
                    <mxGeometry width="230" height="40" as="geometry"/>
                </mxCell>
                <mxCell id="176" value="戻るボタンを押す" style="rounded=0;whiteSpace=wrap;html=1;" parent="181" vertex="1">
                    <mxGeometry y="90" width="230" height="50" as="geometry"/>
                </mxCell>
                <mxCell id="182" value="" style="endArrow=classic;html=1;exitX=0;exitY=0.5;exitDx=0;exitDy=0;entryX=1;entryY=0.5;entryDx=0;entryDy=0;" parent="1" source="176" target="73" edge="1">
                    <mxGeometry width="50" height="50" relative="1" as="geometry">
                        <mxPoint x="1310" y="155" as="sourcePoint"/>
                        <mxPoint x="1400" y="110" as="targetPoint"/>
                    </mxGeometry>
                </mxCell>
                <mxCell id="183" value="" style="curved=1;endArrow=classic;html=1;exitX=1;exitY=0.5;exitDx=0;exitDy=0;entryX=1;entryY=0.5;entryDx=0;entryDy=0;" parent="1" source="174" target="80" edge="1">
                    <mxGeometry width="50" height="50" relative="1" as="geometry">
                        <mxPoint x="1310" y="217.5" as="sourcePoint"/>
                        <mxPoint x="1310" y="192.5" as="targetPoint"/>
                        <Array as="points">
                            <mxPoint x="1660" y="50"/>
                            <mxPoint x="1550" y="-40"/>
                            <mxPoint x="1320" y="-30"/>
                        </Array>
                    </mxGeometry>
                </mxCell>
                <mxCell id="184" value="戻るボタンを押す" style="rounded=0;whiteSpace=wrap;html=1;" parent="1" vertex="1">
                    <mxGeometry x="-300" y="420" width="230" height="50" as="geometry"/>
                </mxCell>
                <mxCell id="185" value="" style="endArrow=classic;html=1;exitX=1;exitY=0.5;exitDx=0;exitDy=0;entryX=0;entryY=0.75;entryDx=0;entryDy=0;" parent="1" source="184" target="40" edge="1">
                    <mxGeometry width="50" height="50" relative="1" as="geometry">
                        <mxPoint x="-60" y="355" as="sourcePoint"/>
                        <mxPoint x="40" y="445" as="targetPoint"/>
                    </mxGeometry>
                </mxCell>
                <mxCell id="186" value="" style="group" parent="1" vertex="1" connectable="0">
                    <mxGeometry x="-610" y="280" width="230" height="140" as="geometry"/>
                </mxCell>
                <mxCell id="187" value="保存ボタンを押す" style="rounded=0;whiteSpace=wrap;html=1;" parent="186" vertex="1">
                    <mxGeometry y="40" width="230" height="50" as="geometry"/>
                </mxCell>
                <mxCell id="188" value="マイページ編集確認画面" style="rounded=1;whiteSpace=wrap;html=1;" parent="186" vertex="1">
                    <mxGeometry width="230" height="40" as="geometry"/>
                </mxCell>
                <mxCell id="189" value="戻るボタンを押す" style="rounded=0;whiteSpace=wrap;html=1;" parent="186" vertex="1">
                    <mxGeometry y="90" width="230" height="50" as="geometry"/>
                </mxCell>
                <mxCell id="191" value="" style="endArrow=classic;html=1;exitX=1;exitY=0.5;exitDx=0;exitDy=0;entryX=0;entryY=0.5;entryDx=0;entryDy=0;" parent="1" source="189" target="184" edge="1">
                    <mxGeometry width="50" height="50" relative="1" as="geometry">
                        <mxPoint x="-60" y="455" as="sourcePoint"/>
                        <mxPoint x="70" y="367.5" as="targetPoint"/>
                    </mxGeometry>
                </mxCell>
                <mxCell id="192" value="" style="curved=1;endArrow=classic;html=1;entryX=0;entryY=0;entryDx=0;entryDy=0;exitX=0;exitY=0.5;exitDx=0;exitDy=0;" parent="1" target="41" edge="1">
                    <mxGeometry width="50" height="50" relative="1" as="geometry">
                        <mxPoint x="-610" y="345" as="sourcePoint"/>
                        <mxPoint x="230" y="280" as="targetPoint"/>
                        <Array as="points">
                            <mxPoint x="-670" y="300"/>
                            <mxPoint x="-560" y="170"/>
                        </Array>
                    </mxGeometry>
                </mxCell>
                <mxCell id="195" value="" style="group" parent="1" vertex="1" connectable="0">
                    <mxGeometry x="60" y="840" width="230" height="190" as="geometry"/>
                </mxCell>
                <mxCell id="196" value="ユーザーのロックボタンを押す" style="rounded=0;whiteSpace=wrap;html=1;" parent="195" vertex="1">
                    <mxGeometry y="40" width="230" height="50" as="geometry"/>
                </mxCell>
                <mxCell id="197" value="管理者画面" style="rounded=1;whiteSpace=wrap;html=1;" parent="195" vertex="1">
                    <mxGeometry width="230" height="40" as="geometry"/>
                </mxCell>
                <mxCell id="199" value="ユーザーのアンロックボタンを押す" style="rounded=0;whiteSpace=wrap;html=1;" parent="195" vertex="1">
                    <mxGeometry y="90" width="230" height="50" as="geometry"/>
                </mxCell>
                <mxCell id="200" value="" style="curved=1;endArrow=classic;html=1;exitX=1;exitY=0.75;exitDx=0;exitDy=0;entryX=1;entryY=0.25;entryDx=0;entryDy=0;" parent="195" source="196" target="196" edge="1">
                    <mxGeometry width="50" height="50" relative="1" as="geometry">
                        <mxPoint x="-80" y="105" as="sourcePoint"/>
                        <mxPoint x="-80" y="10" as="targetPoint"/>
                        <Array as="points">
                            <mxPoint x="260" y="80"/>
                            <mxPoint x="260" y="50"/>
                        </Array>
                    </mxGeometry>
                </mxCell>
                <mxCell id="203" value="" style="curved=1;endArrow=classic;html=1;exitX=1;exitY=0.75;exitDx=0;exitDy=0;entryX=1;entryY=0.25;entryDx=0;entryDy=0;" parent="195" source="199" target="199" edge="1">
                    <mxGeometry width="50" height="50" relative="1" as="geometry">
                        <mxPoint x="240" y="87.5" as="sourcePoint"/>
                        <mxPoint x="240" y="62.5" as="targetPoint"/>
                        <Array as="points">
                            <mxPoint x="260" y="130"/>
                            <mxPoint x="260" y="103"/>
                        </Array>
                    </mxGeometry>
                </mxCell>
                <mxCell id="204" value="ユーザーの削除ボタンを押す" style="rounded=0;whiteSpace=wrap;html=1;" parent="195" vertex="1">
                    <mxGeometry y="140" width="230" height="50" as="geometry"/>
                </mxCell>
                <mxCell id="206" value="" style="curved=1;endArrow=classic;html=1;exitX=1;exitY=0.75;exitDx=0;exitDy=0;entryX=1;entryY=0.25;entryDx=0;entryDy=0;" parent="195" source="204" target="204" edge="1">
                    <mxGeometry width="50" height="50" relative="1" as="geometry">
                        <mxPoint x="240" y="87.5" as="sourcePoint"/>
                        <mxPoint x="240" y="62.5" as="targetPoint"/>
                        <Array as="points">
                            <mxPoint x="260" y="178"/>
                            <mxPoint x="260" y="153"/>
                        </Array>
                    </mxGeometry>
                </mxCell>
                <mxCell id="205" value="ユーザーの詳細画面ボタンを押す" style="rounded=0;whiteSpace=wrap;html=1;" parent="1" vertex="1">
                    <mxGeometry x="60" y="1030" width="230" height="50" as="geometry"/>
                </mxCell>
                <mxCell id="207" value="" style="curved=1;endArrow=classic;html=1;exitX=0;exitY=0.5;exitDx=0;exitDy=0;entryX=0;entryY=0.5;entryDx=0;entryDy=0;" parent="1" source="205" target="59" edge="1">
                    <mxGeometry width="50" height="50" relative="1" as="geometry">
                        <mxPoint x="300" y="977.5" as="sourcePoint"/>
                        <mxPoint x="-80" y="820" as="targetPoint"/>
                        <Array as="points">
                            <mxPoint x="-30" y="1010"/>
                            <mxPoint x="-70" y="600"/>
                        </Array>
                    </mxGeometry>
                </mxCell>
                <mxCell id="214" value="" style="group" parent="1" vertex="1" connectable="0">
                    <mxGeometry x="-690" y="-270" width="540" height="90" as="geometry"/>
                </mxCell>
                <mxCell id="209" value="グローバルナビゲーション" style="rounded=1;whiteSpace=wrap;html=1;" parent="214" vertex="1">
                    <mxGeometry width="540" height="40" as="geometry"/>
                </mxCell>
                <mxCell id="210" value="管理者画面&lt;br&gt;&lt;font style=&quot;font-size: 10px&quot;&gt;（管理者アカウントのみ）&lt;/font&gt;" style="rounded=0;whiteSpace=wrap;html=1;" parent="214" vertex="1">
                    <mxGeometry y="40" width="140" height="50" as="geometry"/>
                </mxCell>
                <mxCell id="211" value="メッセージ" style="rounded=0;whiteSpace=wrap;html=1;" parent="214" vertex="1">
                    <mxGeometry x="140" y="40" width="140" height="50" as="geometry"/>
                </mxCell>
                <mxCell id="212" value="マイページ" style="rounded=0;whiteSpace=wrap;html=1;" parent="214" vertex="1">
                    <mxGeometry x="280" y="40" width="130" height="50" as="geometry"/>
                </mxCell>
                <mxCell id="213" value="ログアウト" style="rounded=0;whiteSpace=wrap;html=1;" parent="214" vertex="1">
                    <mxGeometry x="410" y="40" width="130" height="50" as="geometry"/>
                </mxCell>
                <mxCell id="217" value="" style="endArrow=classic;html=1;entryX=0.5;entryY=0;entryDx=0;entryDy=0;exitX=0.5;exitY=1;exitDx=0;exitDy=0;" parent="1" source="213" target="2" edge="1">
                    <mxGeometry width="50" height="50" relative="1" as="geometry">
                        <mxPoint x="-170" y="-140" as="sourcePoint"/>
                        <mxPoint x="-10" y="-125" as="targetPoint"/>
                    </mxGeometry>
                </mxCell>
                <mxCell id="218" value="" style="curved=1;endArrow=classic;html=1;exitX=0.5;exitY=1;exitDx=0;exitDy=0;entryX=0;entryY=0.5;entryDx=0;entryDy=0;" parent="1" source="212" target="42" edge="1">
                    <mxGeometry width="50" height="50" relative="1" as="geometry">
                        <mxPoint x="-725" y="5" as="sourcePoint"/>
                        <mxPoint x="-220" y="570" as="targetPoint"/>
                        <Array as="points">
                            <mxPoint x="-360" y="-130"/>
                            <mxPoint x="-840" y="-80"/>
                            <mxPoint x="-620" y="550"/>
                            <mxPoint x="-100" y="590"/>
                        </Array>
                    </mxGeometry>
                </mxCell>
                <mxCell id="219" value="" style="curved=1;endArrow=classic;html=1;exitX=0.5;exitY=1;exitDx=0;exitDy=0;entryX=0.5;entryY=1;entryDx=0;entryDy=0;" parent="1" source="211" target="115" edge="1">
                    <mxGeometry width="50" height="50" relative="1" as="geometry">
                        <mxPoint x="-475" y="-170" as="sourcePoint"/>
                        <mxPoint x="-330" y="920" as="targetPoint"/>
                        <Array as="points">
                            <mxPoint x="-500" y="-130"/>
                            <mxPoint x="-740" y="-130"/>
                            <mxPoint x="-830" y="140"/>
                            <mxPoint x="-610" y="780"/>
                            <mxPoint x="400" y="1320"/>
                        </Array>
                    </mxGeometry>
                </mxCell>
                <mxCell id="220" value="" style="curved=1;endArrow=classic;html=1;entryX=0.5;entryY=1;entryDx=0;entryDy=0;exitX=0.5;exitY=1;exitDx=0;exitDy=0;" parent="1" source="210" target="205" edge="1">
                    <mxGeometry width="50" height="50" relative="1" as="geometry">
                        <mxPoint x="-620" y="-170" as="sourcePoint"/>
                        <mxPoint x="545" y="790" as="targetPoint"/>
                        <Array as="points">
                            <mxPoint x="-850" y="-160"/>
                            <mxPoint x="-750" y="680"/>
                            <mxPoint x="-50" y="1210"/>
                        </Array>
                    </mxGeometry>
                </mxCell>
            </root>
        </mxGraphModel>
    </diagram>
</mxfile>
